<mxfile host="Electron" modified="2023-11-04T13:33:56.862Z" agent="Mozilla/5.0 (Windows NT 10.0; Win64; x64) AppleWebKit/537.36 (KHTML, like Gecko) draw.io/22.0.3 Chrome/114.0.5735.289 Electron/25.8.4 Safari/537.36" etag="EWSwHIL9kDLL7RLIjiu_" version="22.0.3" type="device">
  <diagram id="R2lEEEUBdFMjLlhIrx00" name="Hotel">
    <mxGraphModel dx="1480" dy="890" grid="1" gridSize="10" guides="1" tooltips="1" connect="1" arrows="1" fold="1" page="1" pageScale="1" pageWidth="1100" pageHeight="850" background="#ffffff" math="0" shadow="1" extFonts="Permanent Marker^https://fonts.googleapis.com/css?family=Permanent+Marker">
      <root>
        <mxCell id="0" />
        <mxCell id="1" parent="0" />
        <mxCell id="C-vyLk0tnHw3VtMMgP7b-23" value="Hotel" style="shape=table;startSize=30;container=1;collapsible=1;childLayout=tableLayout;fixedRows=1;rowLines=0;fontStyle=1;align=center;resizeLast=1;shadow=1;fillColor=none;snapToPoint=1;fixDash=0;strokeWidth=2;enumerate=0;comic=0;backgroundOutline=0;metaEdit=0;labelBorderColor=none;labelBackgroundColor=none;fontFamily=Courier New;rounded=1;" parent="1" vertex="1">
          <mxGeometry x="83" y="159" width="250" height="140" as="geometry" />
        </mxCell>
        <mxCell id="C-vyLk0tnHw3VtMMgP7b-24" value="" style="shape=partialRectangle;collapsible=0;dropTarget=0;pointerEvents=0;fillColor=none;points=[[0,0.5],[1,0.5]];portConstraint=eastwest;top=0;left=0;right=0;bottom=1;shadow=1;snapToPoint=1;fixDash=0;strokeWidth=2;enumerate=0;comic=0;backgroundOutline=0;metaEdit=0;labelBorderColor=none;labelBackgroundColor=none;fontFamily=Courier New;fontStyle=1;rounded=1;" parent="C-vyLk0tnHw3VtMMgP7b-23" vertex="1">
          <mxGeometry y="30" width="250" height="30" as="geometry" />
        </mxCell>
        <mxCell id="C-vyLk0tnHw3VtMMgP7b-25" value="PK" style="shape=partialRectangle;overflow=hidden;connectable=0;fillColor=none;top=0;left=0;bottom=0;right=0;fontStyle=1;shadow=1;snapToPoint=1;fixDash=0;strokeWidth=2;enumerate=0;comic=0;backgroundOutline=0;metaEdit=0;labelBorderColor=none;labelBackgroundColor=none;fontFamily=Courier New;rounded=1;" parent="C-vyLk0tnHw3VtMMgP7b-24" vertex="1">
          <mxGeometry width="30" height="30" as="geometry">
            <mxRectangle width="30" height="30" as="alternateBounds" />
          </mxGeometry>
        </mxCell>
        <mxCell id="C-vyLk0tnHw3VtMMgP7b-26" value="Hotel_ID NOT NULL UNIQUE" style="shape=partialRectangle;overflow=hidden;connectable=0;fillColor=none;top=0;left=0;bottom=0;right=0;align=center;spacingLeft=6;fontStyle=5;shadow=1;snapToPoint=1;fixDash=0;strokeWidth=2;enumerate=0;comic=0;backgroundOutline=0;metaEdit=0;labelBorderColor=none;labelBackgroundColor=none;fontFamily=Courier New;rounded=1;" parent="C-vyLk0tnHw3VtMMgP7b-24" vertex="1">
          <mxGeometry x="30" width="220" height="30" as="geometry">
            <mxRectangle width="220" height="30" as="alternateBounds" />
          </mxGeometry>
        </mxCell>
        <mxCell id="C-vyLk0tnHw3VtMMgP7b-27" value="" style="shape=partialRectangle;collapsible=0;dropTarget=0;pointerEvents=0;fillColor=none;points=[[0,0.5],[1,0.5]];portConstraint=eastwest;top=0;left=0;right=0;bottom=0;shadow=1;snapToPoint=1;fixDash=0;strokeWidth=2;enumerate=0;comic=0;backgroundOutline=0;metaEdit=0;labelBorderColor=none;labelBackgroundColor=none;fontFamily=Courier New;fontStyle=1;rounded=1;" parent="C-vyLk0tnHw3VtMMgP7b-23" vertex="1">
          <mxGeometry y="60" width="250" height="80" as="geometry" />
        </mxCell>
        <mxCell id="C-vyLk0tnHw3VtMMgP7b-28" value="" style="shape=partialRectangle;overflow=hidden;connectable=0;fillColor=none;top=0;left=0;bottom=0;right=0;shadow=1;snapToPoint=1;fixDash=0;strokeWidth=2;enumerate=0;comic=0;backgroundOutline=0;metaEdit=0;labelBorderColor=none;labelBackgroundColor=none;fontFamily=Courier New;fontStyle=1;rounded=1;" parent="C-vyLk0tnHw3VtMMgP7b-27" vertex="1">
          <mxGeometry width="30" height="80" as="geometry">
            <mxRectangle width="30" height="80" as="alternateBounds" />
          </mxGeometry>
        </mxCell>
        <mxCell id="C-vyLk0tnHw3VtMMgP7b-29" value="Name (TEXT)&#xa;Location(TEXT)&#xa;Rating(INTEGER)&#xa;Website(TEXT)" style="shape=partialRectangle;overflow=hidden;connectable=0;fillColor=none;top=0;left=0;bottom=0;right=0;align=center;spacingLeft=6;fontStyle=1;shadow=1;snapToPoint=1;fixDash=0;strokeWidth=2;enumerate=0;comic=0;backgroundOutline=0;metaEdit=0;labelBorderColor=none;labelBackgroundColor=none;fontFamily=Courier New;rounded=1;" parent="C-vyLk0tnHw3VtMMgP7b-27" vertex="1">
          <mxGeometry x="30" width="220" height="80" as="geometry">
            <mxRectangle width="220" height="80" as="alternateBounds" />
          </mxGeometry>
        </mxCell>
        <mxCell id="C-vyLk0tnHw3VtMMgP7b-2" value="Event" style="shape=table;startSize=30;container=1;collapsible=1;childLayout=tableLayout;fixedRows=1;rowLines=0;fontStyle=1;align=center;resizeLast=1;shadow=1;fillColor=none;snapToPoint=1;fixDash=0;strokeWidth=2;enumerate=0;comic=0;backgroundOutline=0;metaEdit=0;labelBorderColor=none;labelBackgroundColor=none;fontFamily=Courier New;rounded=1;" parent="1" vertex="1">
          <mxGeometry x="793" y="119" width="231" height="190" as="geometry">
            <mxRectangle x="509" y="110" width="70" height="30" as="alternateBounds" />
          </mxGeometry>
        </mxCell>
        <mxCell id="C-vyLk0tnHw3VtMMgP7b-3" value="" style="shape=partialRectangle;collapsible=0;dropTarget=0;pointerEvents=0;fillColor=none;points=[[0,0.5],[1,0.5]];portConstraint=eastwest;top=0;left=0;right=0;bottom=1;shadow=1;snapToPoint=1;fixDash=0;strokeWidth=2;enumerate=0;comic=0;backgroundOutline=0;metaEdit=0;labelBorderColor=none;labelBackgroundColor=none;fontFamily=Courier New;fontStyle=1;rounded=1;" parent="C-vyLk0tnHw3VtMMgP7b-2" vertex="1">
          <mxGeometry y="30" width="231" height="30" as="geometry" />
        </mxCell>
        <mxCell id="C-vyLk0tnHw3VtMMgP7b-4" value="PK" style="shape=partialRectangle;overflow=hidden;connectable=0;fillColor=none;top=0;left=0;bottom=0;right=0;fontStyle=1;shadow=1;snapToPoint=1;fixDash=0;strokeWidth=2;enumerate=0;comic=0;backgroundOutline=0;metaEdit=0;labelBorderColor=none;labelBackgroundColor=none;fontFamily=Courier New;rounded=1;" parent="C-vyLk0tnHw3VtMMgP7b-3" vertex="1">
          <mxGeometry width="41" height="30" as="geometry">
            <mxRectangle width="41" height="30" as="alternateBounds" />
          </mxGeometry>
        </mxCell>
        <mxCell id="C-vyLk0tnHw3VtMMgP7b-5" value="Event_ID NOT NULL UNIQUE" style="shape=partialRectangle;overflow=hidden;connectable=0;fillColor=none;top=0;left=0;bottom=0;right=0;align=left;spacingLeft=6;fontStyle=5;shadow=1;snapToPoint=1;fixDash=0;strokeWidth=2;enumerate=0;comic=0;backgroundOutline=0;metaEdit=0;labelBorderColor=none;labelBackgroundColor=none;fontFamily=Courier New;rounded=1;" parent="C-vyLk0tnHw3VtMMgP7b-3" vertex="1">
          <mxGeometry x="41" width="190" height="30" as="geometry">
            <mxRectangle width="190" height="30" as="alternateBounds" />
          </mxGeometry>
        </mxCell>
        <mxCell id="C-vyLk0tnHw3VtMMgP7b-6" value="" style="shape=partialRectangle;collapsible=0;dropTarget=0;pointerEvents=0;fillColor=none;points=[[0,0.5],[1,0.5]];portConstraint=eastwest;top=0;left=0;right=0;bottom=0;strokeWidth=2;perimeterSpacing=5;align=left;labelPosition=right;verticalLabelPosition=top;verticalAlign=bottom;shadow=1;snapToPoint=1;fixDash=0;enumerate=0;comic=0;backgroundOutline=0;metaEdit=0;labelBorderColor=none;labelBackgroundColor=none;fontFamily=Courier New;fontStyle=1;rounded=1;" parent="C-vyLk0tnHw3VtMMgP7b-2" vertex="1">
          <mxGeometry y="60" width="231" height="89" as="geometry" />
        </mxCell>
        <mxCell id="C-vyLk0tnHw3VtMMgP7b-7" value="" style="shape=partialRectangle;overflow=hidden;connectable=0;fillColor=none;top=0;left=0;bottom=0;right=0;shadow=1;snapToPoint=1;fixDash=0;strokeWidth=2;enumerate=0;comic=0;backgroundOutline=0;metaEdit=0;labelBorderColor=none;labelBackgroundColor=none;fontFamily=Courier New;fontStyle=1;rounded=1;" parent="C-vyLk0tnHw3VtMMgP7b-6" vertex="1">
          <mxGeometry width="41" height="89" as="geometry">
            <mxRectangle width="41" height="89" as="alternateBounds" />
          </mxGeometry>
        </mxCell>
        <mxCell id="C-vyLk0tnHw3VtMMgP7b-8" value="Event_type (TEXT)&#xa;Date_Even(date)&#xa;Duration(INTEGER)&#xa;Description(TEXT)&#xa;Maximum_Capacity" style="shape=partialRectangle;overflow=hidden;connectable=0;fillColor=none;top=0;left=0;bottom=0;right=0;align=center;spacingLeft=6;fontStyle=1;labelBackgroundColor=none;textDirection=ltr;horizontal=1;verticalAlign=middle;fontFamily=Courier New;shadow=1;strokeWidth=2;snapToPoint=1;fixDash=0;enumerate=0;comic=0;backgroundOutline=0;metaEdit=0;labelBorderColor=none;rounded=1;" parent="C-vyLk0tnHw3VtMMgP7b-6" vertex="1">
          <mxGeometry x="41" width="190" height="89" as="geometry">
            <mxRectangle width="190" height="89" as="alternateBounds" />
          </mxGeometry>
        </mxCell>
        <mxCell id="C-vyLk0tnHw3VtMMgP7b-9" value="" style="shape=partialRectangle;collapsible=0;dropTarget=0;pointerEvents=0;fillColor=none;points=[[0,0.5],[1,0.5]];portConstraint=eastwest;top=0;left=0;right=0;bottom=0;shadow=1;snapToPoint=1;fixDash=0;strokeWidth=2;enumerate=0;comic=0;backgroundOutline=0;metaEdit=0;labelBorderColor=none;labelBackgroundColor=none;fontFamily=Courier New;fontStyle=1;rounded=1;" parent="C-vyLk0tnHw3VtMMgP7b-2" vertex="1">
          <mxGeometry y="149" width="231" height="41" as="geometry" />
        </mxCell>
        <mxCell id="C-vyLk0tnHw3VtMMgP7b-10" value="FK" style="shape=partialRectangle;overflow=hidden;connectable=0;fillColor=none;top=0;left=0;bottom=0;right=0;fontStyle=1;shadow=1;snapToPoint=1;fixDash=0;strokeWidth=2;enumerate=0;comic=0;backgroundOutline=0;metaEdit=0;labelBorderColor=none;labelBackgroundColor=none;fontFamily=Courier New;rounded=1;" parent="C-vyLk0tnHw3VtMMgP7b-9" vertex="1">
          <mxGeometry width="41" height="41" as="geometry">
            <mxRectangle width="41" height="41" as="alternateBounds" />
          </mxGeometry>
        </mxCell>
        <mxCell id="C-vyLk0tnHw3VtMMgP7b-11" value="Hotel_ID" style="shape=partialRectangle;overflow=hidden;connectable=0;fillColor=none;top=0;left=0;bottom=0;right=0;align=center;spacingLeft=6;fontStyle=1;labelBorderColor=none;labelBackgroundColor=none;shadow=1;snapToPoint=1;fixDash=0;strokeWidth=2;enumerate=0;comic=0;backgroundOutline=0;metaEdit=0;fontFamily=Courier New;horizontal=1;rounded=1;" parent="C-vyLk0tnHw3VtMMgP7b-9" vertex="1">
          <mxGeometry x="41" width="190" height="41" as="geometry">
            <mxRectangle width="190" height="41" as="alternateBounds" />
          </mxGeometry>
        </mxCell>
        <mxCell id="nDMAIQLn7FQ3r7cXZeYU-26" value="" style="endArrow=none;html=1;rounded=1;exitX=0;exitY=0.137;exitDx=0;exitDy=0;exitPerimeter=0;fontStyle=0;shadow=1;strokeWidth=2;labelBackgroundColor=none;fontColor=default;entryX=1.004;entryY=0.15;entryDx=0;entryDy=0;entryPerimeter=0;" parent="C-vyLk0tnHw3VtMMgP7b-2" source="C-vyLk0tnHw3VtMMgP7b-9" target="C-vyLk0tnHw3VtMMgP7b-9" edge="1">
          <mxGeometry width="50" height="50" relative="1" as="geometry">
            <mxPoint x="14.886999999999944" y="194.5329999999999" as="sourcePoint" />
            <mxPoint x="205" y="195" as="targetPoint" />
          </mxGeometry>
        </mxCell>
        <mxCell id="nDMAIQLn7FQ3r7cXZeYU-11" value="" style="rounded=1;orthogonalLoop=1;jettySize=auto;fontStyle=1;shadow=1;labelBorderColor=none;edgeStyle=orthogonalEdgeStyle;jumpStyle=none;endArrow=none;endFill=0;fillColor=none;snapToPoint=1;fixDash=0;strokeWidth=2;enumerate=0;comic=0;backgroundOutline=0;metaEdit=0;labelBackgroundColor=none;fontFamily=Courier New;fontColor=default;exitX=1;exitY=0.103;exitDx=0;exitDy=0;exitPerimeter=0;entryX=0;entryY=0.22;entryDx=0;entryDy=0;entryPerimeter=0;" parent="1" source="C-vyLk0tnHw3VtMMgP7b-27" target="C-vyLk0tnHw3VtMMgP7b-9" edge="1">
          <mxGeometry relative="1" as="geometry">
            <Array as="points">
              <mxPoint x="333" y="229" />
              <mxPoint x="793" y="229" />
            </Array>
          </mxGeometry>
        </mxCell>
        <mxCell id="nDMAIQLn7FQ3r7cXZeYU-48" value="Room" style="shape=table;startSize=30;container=1;collapsible=1;childLayout=tableLayout;fixedRows=1;rowLines=0;fontStyle=1;align=center;resizeLast=1;shadow=1;fillColor=none;snapToPoint=1;fixDash=0;strokeWidth=2;enumerate=0;comic=0;backgroundOutline=0;metaEdit=0;labelBorderColor=none;labelBackgroundColor=none;fontFamily=Courier New;rounded=1;" parent="1" vertex="1">
          <mxGeometry x="73" y="389" width="231" height="190" as="geometry">
            <mxRectangle x="509" y="110" width="70" height="30" as="alternateBounds" />
          </mxGeometry>
        </mxCell>
        <mxCell id="nDMAIQLn7FQ3r7cXZeYU-49" value="" style="shape=partialRectangle;collapsible=0;dropTarget=0;pointerEvents=0;fillColor=none;points=[[0,0.5],[1,0.5]];portConstraint=eastwest;top=0;left=0;right=0;bottom=1;shadow=1;snapToPoint=1;fixDash=0;strokeWidth=2;enumerate=0;comic=0;backgroundOutline=0;metaEdit=0;labelBorderColor=none;labelBackgroundColor=none;fontFamily=Courier New;fontStyle=1;rounded=1;" parent="nDMAIQLn7FQ3r7cXZeYU-48" vertex="1">
          <mxGeometry y="30" width="231" height="30" as="geometry" />
        </mxCell>
        <mxCell id="nDMAIQLn7FQ3r7cXZeYU-50" value="PK" style="shape=partialRectangle;overflow=hidden;connectable=0;fillColor=none;top=0;left=0;bottom=0;right=0;fontStyle=1;shadow=1;snapToPoint=1;fixDash=0;strokeWidth=2;enumerate=0;comic=0;backgroundOutline=0;metaEdit=0;labelBorderColor=none;labelBackgroundColor=none;fontFamily=Courier New;rounded=1;" parent="nDMAIQLn7FQ3r7cXZeYU-49" vertex="1">
          <mxGeometry width="41" height="30" as="geometry">
            <mxRectangle width="41" height="30" as="alternateBounds" />
          </mxGeometry>
        </mxCell>
        <mxCell id="nDMAIQLn7FQ3r7cXZeYU-51" value="Room_ID NOT NULL UNIQUE" style="shape=partialRectangle;overflow=hidden;connectable=0;fillColor=none;top=0;left=0;bottom=0;right=0;align=left;spacingLeft=6;fontStyle=5;shadow=1;snapToPoint=1;fixDash=0;strokeWidth=2;enumerate=0;comic=0;backgroundOutline=0;metaEdit=0;labelBorderColor=none;labelBackgroundColor=none;fontFamily=Courier New;rounded=1;" parent="nDMAIQLn7FQ3r7cXZeYU-49" vertex="1">
          <mxGeometry x="41" width="190" height="30" as="geometry">
            <mxRectangle width="190" height="30" as="alternateBounds" />
          </mxGeometry>
        </mxCell>
        <mxCell id="nDMAIQLn7FQ3r7cXZeYU-52" value="" style="shape=partialRectangle;collapsible=0;dropTarget=0;pointerEvents=0;fillColor=none;points=[[0,0.5],[1,0.5]];portConstraint=eastwest;top=0;left=0;right=0;bottom=0;strokeWidth=2;perimeterSpacing=5;align=left;labelPosition=right;verticalLabelPosition=top;verticalAlign=bottom;shadow=1;snapToPoint=1;fixDash=0;enumerate=0;comic=0;backgroundOutline=0;metaEdit=0;labelBorderColor=none;labelBackgroundColor=none;fontFamily=Courier New;fontStyle=1;rounded=1;" parent="nDMAIQLn7FQ3r7cXZeYU-48" vertex="1">
          <mxGeometry y="60" width="231" height="89" as="geometry" />
        </mxCell>
        <mxCell id="nDMAIQLn7FQ3r7cXZeYU-53" value="" style="shape=partialRectangle;overflow=hidden;connectable=0;fillColor=none;top=0;left=0;bottom=0;right=0;shadow=1;snapToPoint=1;fixDash=0;strokeWidth=2;enumerate=0;comic=0;backgroundOutline=0;metaEdit=0;labelBorderColor=none;labelBackgroundColor=none;fontFamily=Courier New;fontStyle=1;rounded=1;" parent="nDMAIQLn7FQ3r7cXZeYU-52" vertex="1">
          <mxGeometry width="41" height="89" as="geometry">
            <mxRectangle width="41" height="89" as="alternateBounds" />
          </mxGeometry>
        </mxCell>
        <mxCell id="nDMAIQLn7FQ3r7cXZeYU-54" value="Room_Number(INTEGER)&#xa;Type(TEXT)&#xa;Capacity_of_room(INTEGER)&#xa;Price(INTEGER)&#xa;Availability(BOOL)" style="shape=partialRectangle;overflow=hidden;connectable=0;fillColor=none;top=0;left=0;bottom=0;right=0;align=center;spacingLeft=6;fontStyle=1;labelBackgroundColor=none;textDirection=ltr;horizontal=1;verticalAlign=middle;fontFamily=Courier New;shadow=1;strokeWidth=2;snapToPoint=1;fixDash=0;enumerate=0;comic=0;backgroundOutline=0;metaEdit=0;labelBorderColor=none;rounded=1;" parent="nDMAIQLn7FQ3r7cXZeYU-52" vertex="1">
          <mxGeometry x="41" width="190" height="89" as="geometry">
            <mxRectangle width="190" height="89" as="alternateBounds" />
          </mxGeometry>
        </mxCell>
        <mxCell id="nDMAIQLn7FQ3r7cXZeYU-55" value="" style="shape=partialRectangle;collapsible=0;dropTarget=0;pointerEvents=0;fillColor=none;points=[[0,0.5],[1,0.5]];portConstraint=eastwest;top=0;left=0;right=0;bottom=0;shadow=1;snapToPoint=1;fixDash=0;strokeWidth=2;enumerate=0;comic=0;backgroundOutline=0;metaEdit=0;labelBorderColor=none;labelBackgroundColor=none;fontFamily=Courier New;fontStyle=1;rounded=1;" parent="nDMAIQLn7FQ3r7cXZeYU-48" vertex="1">
          <mxGeometry y="149" width="231" height="41" as="geometry" />
        </mxCell>
        <mxCell id="nDMAIQLn7FQ3r7cXZeYU-56" value="FK" style="shape=partialRectangle;overflow=hidden;connectable=0;fillColor=none;top=0;left=0;bottom=0;right=0;fontStyle=1;shadow=1;snapToPoint=1;fixDash=0;strokeWidth=2;enumerate=0;comic=0;backgroundOutline=0;metaEdit=0;labelBorderColor=none;labelBackgroundColor=none;fontFamily=Courier New;rounded=1;" parent="nDMAIQLn7FQ3r7cXZeYU-55" vertex="1">
          <mxGeometry width="41" height="41" as="geometry">
            <mxRectangle width="41" height="41" as="alternateBounds" />
          </mxGeometry>
        </mxCell>
        <mxCell id="nDMAIQLn7FQ3r7cXZeYU-57" value="Hotel_ID" style="shape=partialRectangle;overflow=hidden;connectable=0;fillColor=none;top=0;left=0;bottom=0;right=0;align=center;spacingLeft=6;fontStyle=1;labelBorderColor=none;labelBackgroundColor=none;shadow=1;snapToPoint=1;fixDash=0;strokeWidth=2;enumerate=0;comic=0;backgroundOutline=0;metaEdit=0;fontFamily=Courier New;horizontal=1;rounded=1;" parent="nDMAIQLn7FQ3r7cXZeYU-55" vertex="1">
          <mxGeometry x="41" width="190" height="41" as="geometry">
            <mxRectangle width="190" height="41" as="alternateBounds" />
          </mxGeometry>
        </mxCell>
        <mxCell id="nDMAIQLn7FQ3r7cXZeYU-58" value="" style="endArrow=none;html=1;rounded=1;exitX=0;exitY=0.137;exitDx=0;exitDy=0;exitPerimeter=0;fontStyle=0;shadow=1;strokeWidth=2;labelBackgroundColor=none;fontColor=default;entryX=0.996;entryY=0.152;entryDx=0;entryDy=0;entryPerimeter=0;" parent="nDMAIQLn7FQ3r7cXZeYU-48" source="nDMAIQLn7FQ3r7cXZeYU-55" target="nDMAIQLn7FQ3r7cXZeYU-55" edge="1">
          <mxGeometry width="50" height="50" relative="1" as="geometry">
            <mxPoint x="734.887" y="154.5329999999999" as="sourcePoint" />
            <mxPoint x="925" y="155" as="targetPoint" />
          </mxGeometry>
        </mxCell>
        <mxCell id="nDMAIQLn7FQ3r7cXZeYU-61" value="Person" style="shape=table;startSize=30;container=1;collapsible=1;childLayout=tableLayout;fixedRows=1;rowLines=0;fontStyle=1;align=center;resizeLast=1;shadow=1;fillColor=none;snapToPoint=1;fixDash=0;strokeWidth=2;enumerate=0;comic=0;backgroundOutline=0;metaEdit=0;labelBorderColor=none;labelBackgroundColor=none;fontFamily=Courier New;rounded=1;" parent="1" vertex="1">
          <mxGeometry x="543" y="449" width="250" height="140" as="geometry" />
        </mxCell>
        <mxCell id="nDMAIQLn7FQ3r7cXZeYU-62" value="" style="shape=partialRectangle;collapsible=0;dropTarget=0;pointerEvents=0;fillColor=none;points=[[0,0.5],[1,0.5]];portConstraint=eastwest;top=0;left=0;right=0;bottom=1;shadow=1;snapToPoint=1;fixDash=0;strokeWidth=2;enumerate=0;comic=0;backgroundOutline=0;metaEdit=0;labelBorderColor=none;labelBackgroundColor=none;fontFamily=Courier New;fontStyle=1;rounded=1;" parent="nDMAIQLn7FQ3r7cXZeYU-61" vertex="1">
          <mxGeometry y="30" width="250" height="30" as="geometry" />
        </mxCell>
        <mxCell id="nDMAIQLn7FQ3r7cXZeYU-63" value="PK" style="shape=partialRectangle;overflow=hidden;connectable=0;fillColor=none;top=0;left=0;bottom=0;right=0;fontStyle=1;shadow=1;snapToPoint=1;fixDash=0;strokeWidth=2;enumerate=0;comic=0;backgroundOutline=0;metaEdit=0;labelBorderColor=none;labelBackgroundColor=none;fontFamily=Courier New;rounded=1;" parent="nDMAIQLn7FQ3r7cXZeYU-62" vertex="1">
          <mxGeometry width="30" height="30" as="geometry">
            <mxRectangle width="30" height="30" as="alternateBounds" />
          </mxGeometry>
        </mxCell>
        <mxCell id="nDMAIQLn7FQ3r7cXZeYU-64" value="PERSON_ID NOT NULL UNIQUE" style="shape=partialRectangle;overflow=hidden;connectable=0;fillColor=none;top=0;left=0;bottom=0;right=0;align=left;spacingLeft=6;fontStyle=5;shadow=1;snapToPoint=1;fixDash=0;strokeWidth=2;enumerate=0;comic=0;backgroundOutline=0;metaEdit=0;labelBorderColor=none;labelBackgroundColor=none;fontFamily=Courier New;rounded=1;" parent="nDMAIQLn7FQ3r7cXZeYU-62" vertex="1">
          <mxGeometry x="30" width="220" height="30" as="geometry">
            <mxRectangle width="220" height="30" as="alternateBounds" />
          </mxGeometry>
        </mxCell>
        <mxCell id="nDMAIQLn7FQ3r7cXZeYU-65" value="" style="shape=partialRectangle;collapsible=0;dropTarget=0;pointerEvents=0;fillColor=none;points=[[0,0.5],[1,0.5]];portConstraint=eastwest;top=0;left=0;right=0;bottom=0;shadow=1;snapToPoint=1;fixDash=0;strokeWidth=2;enumerate=0;comic=0;backgroundOutline=0;metaEdit=0;labelBorderColor=none;labelBackgroundColor=none;fontFamily=Courier New;fontStyle=1;rounded=1;" parent="nDMAIQLn7FQ3r7cXZeYU-61" vertex="1">
          <mxGeometry y="60" width="250" height="80" as="geometry" />
        </mxCell>
        <mxCell id="nDMAIQLn7FQ3r7cXZeYU-66" value="" style="shape=partialRectangle;overflow=hidden;connectable=0;fillColor=none;top=0;left=0;bottom=0;right=0;shadow=1;snapToPoint=1;fixDash=0;strokeWidth=2;enumerate=0;comic=0;backgroundOutline=0;metaEdit=0;labelBorderColor=none;labelBackgroundColor=none;fontFamily=Courier New;fontStyle=1;rounded=1;" parent="nDMAIQLn7FQ3r7cXZeYU-65" vertex="1">
          <mxGeometry width="30" height="80" as="geometry">
            <mxRectangle width="30" height="80" as="alternateBounds" />
          </mxGeometry>
        </mxCell>
        <mxCell id="nDMAIQLn7FQ3r7cXZeYU-67" value="NAME(TEXT)&#xa;NUMBER(INT)&#xa;Email(TEXT)&#xa;Address(TEXT)&#xa;" style="shape=partialRectangle;overflow=hidden;connectable=0;fillColor=none;top=0;left=0;bottom=0;right=0;align=center;spacingLeft=6;fontStyle=1;shadow=1;snapToPoint=1;fixDash=0;strokeWidth=2;enumerate=0;comic=0;backgroundOutline=0;metaEdit=0;labelBorderColor=none;labelBackgroundColor=none;fontFamily=Courier New;rounded=1;" parent="nDMAIQLn7FQ3r7cXZeYU-65" vertex="1">
          <mxGeometry x="30" width="220" height="80" as="geometry">
            <mxRectangle width="220" height="80" as="alternateBounds" />
          </mxGeometry>
        </mxCell>
        <mxCell id="nDMAIQLn7FQ3r7cXZeYU-73" value="" style="rhombus;whiteSpace=wrap;html=1;labelBackgroundColor=none;rounded=1;" parent="1" vertex="1">
          <mxGeometry x="543" y="198" width="65" height="60" as="geometry" />
        </mxCell>
        <mxCell id="nDMAIQLn7FQ3r7cXZeYU-74" value="&lt;b&gt;&lt;font style=&quot;font-size: 7px;&quot;&gt;Establishing&lt;/font&gt;&lt;br&gt;&lt;/b&gt;" style="edgeLabel;html=1;align=center;verticalAlign=middle;resizable=0;points=[];labelBackgroundColor=none;rounded=1;" parent="1" vertex="1" connectable="0">
          <mxGeometry x="575.5" y="223.9966666666667" as="geometry">
            <mxPoint as="offset" />
          </mxGeometry>
        </mxCell>
        <mxCell id="nDMAIQLn7FQ3r7cXZeYU-142" style="edgeStyle=orthogonalEdgeStyle;rounded=1;orthogonalLoop=1;jettySize=auto;html=1;exitX=0;exitY=0.5;exitDx=0;exitDy=0;entryX=0.516;entryY=0.969;entryDx=0;entryDy=0;entryPerimeter=0;strokeWidth=2;endArrow=none;endFill=0;" parent="1" source="nDMAIQLn7FQ3r7cXZeYU-82" target="nDMAIQLn7FQ3r7cXZeYU-55" edge="1">
          <mxGeometry relative="1" as="geometry">
            <mxPoint x="193" y="589" as="targetPoint" />
            <Array as="points">
              <mxPoint x="193" y="762" />
              <mxPoint x="193" y="720" />
              <mxPoint x="192" y="720" />
            </Array>
          </mxGeometry>
        </mxCell>
        <mxCell id="nDMAIQLn7FQ3r7cXZeYU-78" value="Customer " style="shape=table;startSize=30;container=1;collapsible=1;childLayout=tableLayout;fixedRows=1;rowLines=0;fontStyle=1;align=center;resizeLast=1;shadow=1;fillColor=none;snapToPoint=1;fixDash=0;strokeWidth=2;enumerate=0;comic=0;backgroundOutline=0;metaEdit=0;labelBorderColor=none;labelBackgroundColor=none;fontFamily=Courier New;rounded=1;" parent="1" vertex="1">
          <mxGeometry x="283" y="692" width="250" height="110" as="geometry" />
        </mxCell>
        <mxCell id="nDMAIQLn7FQ3r7cXZeYU-82" value="" style="shape=partialRectangle;collapsible=0;dropTarget=0;pointerEvents=0;fillColor=none;points=[[0,0.5],[1,0.5]];portConstraint=eastwest;top=0;left=0;right=0;bottom=0;shadow=1;snapToPoint=1;fixDash=0;strokeWidth=2;enumerate=0;comic=0;backgroundOutline=0;metaEdit=0;labelBorderColor=none;labelBackgroundColor=none;fontFamily=Courier New;fontStyle=1;rounded=1;" parent="nDMAIQLn7FQ3r7cXZeYU-78" vertex="1">
          <mxGeometry y="30" width="250" height="80" as="geometry" />
        </mxCell>
        <mxCell id="nDMAIQLn7FQ3r7cXZeYU-83" value="1" style="shape=partialRectangle;overflow=hidden;connectable=0;fillColor=none;top=0;left=0;bottom=0;right=0;shadow=1;snapToPoint=1;fixDash=0;strokeWidth=2;enumerate=0;comic=0;backgroundOutline=0;metaEdit=0;labelBorderColor=none;labelBackgroundColor=none;fontFamily=Courier New;fontStyle=1;rounded=1;" parent="nDMAIQLn7FQ3r7cXZeYU-82" vertex="1">
          <mxGeometry width="20" height="80" as="geometry">
            <mxRectangle width="20" height="80" as="alternateBounds" />
          </mxGeometry>
        </mxCell>
        <mxCell id="nDMAIQLn7FQ3r7cXZeYU-84" value="Membership_Type(TEXT)&#xa;Membership_Expiry(DATE)" style="shape=partialRectangle;overflow=hidden;connectable=0;fillColor=none;top=0;left=0;bottom=0;right=0;align=center;spacingLeft=6;fontStyle=1;shadow=1;snapToPoint=1;fixDash=0;strokeWidth=2;enumerate=0;comic=0;backgroundOutline=0;metaEdit=0;labelBorderColor=none;labelBackgroundColor=none;fontFamily=Courier New;rounded=1;" parent="nDMAIQLn7FQ3r7cXZeYU-82" vertex="1">
          <mxGeometry x="20" width="230" height="80" as="geometry">
            <mxRectangle width="230" height="80" as="alternateBounds" />
          </mxGeometry>
        </mxCell>
        <mxCell id="nDMAIQLn7FQ3r7cXZeYU-137" style="edgeStyle=orthogonalEdgeStyle;rounded=1;orthogonalLoop=1;jettySize=auto;html=1;exitX=0.5;exitY=0;exitDx=0;exitDy=0;entryX=0.5;entryY=1;entryDx=0;entryDy=0;endArrow=none;endFill=0;strokeWidth=2;" parent="1" source="nDMAIQLn7FQ3r7cXZeYU-92" target="nDMAIQLn7FQ3r7cXZeYU-61" edge="1">
          <mxGeometry relative="1" as="geometry">
            <Array as="points">
              <mxPoint x="928" y="649" />
              <mxPoint x="668" y="649" />
            </Array>
          </mxGeometry>
        </mxCell>
        <mxCell id="nDMAIQLn7FQ3r7cXZeYU-148" style="edgeStyle=orthogonalEdgeStyle;rounded=1;orthogonalLoop=1;jettySize=auto;html=1;exitX=0.75;exitY=0;exitDx=0;exitDy=0;entryX=1;entryY=0.75;entryDx=0;entryDy=0;strokeWidth=2;endArrow=none;endFill=0;" parent="1" source="nDMAIQLn7FQ3r7cXZeYU-92" target="C-vyLk0tnHw3VtMMgP7b-23" edge="1">
          <mxGeometry relative="1" as="geometry">
            <Array as="points">
              <mxPoint x="991" y="349" />
              <mxPoint x="333" y="349" />
            </Array>
          </mxGeometry>
        </mxCell>
        <mxCell id="nDMAIQLn7FQ3r7cXZeYU-92" value="Manager" style="shape=table;startSize=30;container=1;collapsible=1;childLayout=tableLayout;fixedRows=1;rowLines=0;fontStyle=1;align=center;resizeLast=1;shadow=1;fillColor=none;snapToPoint=1;fixDash=0;strokeWidth=2;enumerate=0;comic=0;backgroundOutline=0;metaEdit=0;labelBorderColor=none;labelBackgroundColor=none;fontFamily=Courier New;rounded=1;" parent="1" vertex="1">
          <mxGeometry x="803" y="692" width="250" height="110" as="geometry" />
        </mxCell>
        <mxCell id="nDMAIQLn7FQ3r7cXZeYU-96" value="" style="shape=partialRectangle;collapsible=0;dropTarget=0;pointerEvents=0;fillColor=none;points=[[0,0.5],[1,0.5]];portConstraint=eastwest;top=0;left=0;right=0;bottom=0;shadow=1;snapToPoint=1;fixDash=0;strokeWidth=2;enumerate=0;comic=0;backgroundOutline=0;metaEdit=0;labelBorderColor=none;labelBackgroundColor=none;fontFamily=Courier New;fontStyle=1;rounded=1;" parent="nDMAIQLn7FQ3r7cXZeYU-92" vertex="1">
          <mxGeometry y="30" width="250" height="80" as="geometry" />
        </mxCell>
        <mxCell id="nDMAIQLn7FQ3r7cXZeYU-97" value="3" style="shape=partialRectangle;overflow=hidden;connectable=0;fillColor=none;top=0;left=0;bottom=0;right=0;shadow=1;snapToPoint=1;fixDash=0;strokeWidth=2;enumerate=0;comic=0;backgroundOutline=0;metaEdit=0;labelBorderColor=none;labelBackgroundColor=none;fontFamily=Courier New;fontStyle=1;rounded=1;" parent="nDMAIQLn7FQ3r7cXZeYU-96" vertex="1">
          <mxGeometry width="30" height="80" as="geometry">
            <mxRectangle width="30" height="80" as="alternateBounds" />
          </mxGeometry>
        </mxCell>
        <mxCell id="nDMAIQLn7FQ3r7cXZeYU-98" value="Department(TEXT)&#xa;Manager_Since(DATE)" style="shape=partialRectangle;overflow=hidden;connectable=0;fillColor=none;top=0;left=0;bottom=0;right=0;align=center;spacingLeft=6;fontStyle=1;shadow=1;snapToPoint=1;fixDash=0;strokeWidth=2;enumerate=0;comic=0;backgroundOutline=0;metaEdit=0;labelBorderColor=none;labelBackgroundColor=none;fontFamily=Courier New;rounded=1;" parent="nDMAIQLn7FQ3r7cXZeYU-96" vertex="1">
          <mxGeometry x="30" width="220" height="80" as="geometry">
            <mxRectangle width="220" height="80" as="alternateBounds" />
          </mxGeometry>
        </mxCell>
        <mxCell id="nDMAIQLn7FQ3r7cXZeYU-135" style="edgeStyle=orthogonalEdgeStyle;rounded=1;orthogonalLoop=1;jettySize=auto;html=1;exitX=0.5;exitY=0;exitDx=0;exitDy=0;entryX=0.5;entryY=1;entryDx=0;entryDy=0;endArrow=none;endFill=0;strokeWidth=2;" parent="1" source="nDMAIQLn7FQ3r7cXZeYU-85" target="nDMAIQLn7FQ3r7cXZeYU-61" edge="1">
          <mxGeometry relative="1" as="geometry" />
        </mxCell>
        <mxCell id="nDMAIQLn7FQ3r7cXZeYU-160" style="edgeStyle=orthogonalEdgeStyle;rounded=1;orthogonalLoop=1;jettySize=auto;html=1;exitX=1;exitY=0;exitDx=0;exitDy=0;strokeWidth=2;endArrow=none;endFill=0;" parent="1" edge="1">
          <mxGeometry relative="1" as="geometry">
            <mxPoint x="333" y="269" as="targetPoint" />
            <mxPoint x="789.9999999999999" y="692" as="sourcePoint" />
            <Array as="points">
              <mxPoint x="790" y="619" />
              <mxPoint x="990" y="619" />
              <mxPoint x="990" y="349" />
              <mxPoint x="333" y="349" />
            </Array>
          </mxGeometry>
        </mxCell>
        <mxCell id="nDMAIQLn7FQ3r7cXZeYU-85" value="Worker " style="shape=table;startSize=30;container=1;collapsible=1;childLayout=tableLayout;fixedRows=1;rowLines=0;fontStyle=1;align=center;resizeLast=1;shadow=1;fillColor=none;snapToPoint=1;fixDash=0;strokeWidth=2;enumerate=0;comic=0;backgroundOutline=0;metaEdit=0;labelBorderColor=none;labelBackgroundColor=none;fontFamily=Courier New;rounded=1;" parent="1" vertex="1">
          <mxGeometry x="543" y="692" width="250" height="110" as="geometry" />
        </mxCell>
        <mxCell id="nDMAIQLn7FQ3r7cXZeYU-89" value="" style="shape=partialRectangle;collapsible=0;dropTarget=0;pointerEvents=0;fillColor=none;points=[[0,0.5],[1,0.5]];portConstraint=eastwest;top=0;left=0;right=0;bottom=0;shadow=1;snapToPoint=1;fixDash=0;strokeWidth=2;enumerate=0;comic=0;backgroundOutline=0;metaEdit=0;labelBorderColor=none;labelBackgroundColor=none;fontFamily=Courier New;fontStyle=1;rounded=1;" parent="nDMAIQLn7FQ3r7cXZeYU-85" vertex="1">
          <mxGeometry y="30" width="250" height="80" as="geometry" />
        </mxCell>
        <mxCell id="nDMAIQLn7FQ3r7cXZeYU-90" value="2" style="shape=partialRectangle;overflow=hidden;connectable=0;fillColor=none;top=0;left=0;bottom=0;right=0;shadow=1;snapToPoint=1;fixDash=0;strokeWidth=2;enumerate=0;comic=0;backgroundOutline=0;metaEdit=0;labelBorderColor=none;labelBackgroundColor=none;fontFamily=Courier New;fontStyle=1;rounded=1;" parent="nDMAIQLn7FQ3r7cXZeYU-89" vertex="1">
          <mxGeometry width="20" height="80" as="geometry">
            <mxRectangle width="20" height="80" as="alternateBounds" />
          </mxGeometry>
        </mxCell>
        <mxCell id="nDMAIQLn7FQ3r7cXZeYU-91" value="Job_Title(TEXT)&#xa;Hire_Date(TEXT)&#xa;" style="shape=partialRectangle;overflow=hidden;connectable=0;fillColor=none;top=0;left=0;bottom=0;right=0;align=center;spacingLeft=6;fontStyle=1;shadow=1;snapToPoint=1;fixDash=0;strokeWidth=2;enumerate=0;comic=0;backgroundOutline=0;metaEdit=0;labelBorderColor=none;labelBackgroundColor=none;fontFamily=Courier New;rounded=1;" parent="nDMAIQLn7FQ3r7cXZeYU-89" vertex="1">
          <mxGeometry x="20" width="230" height="80" as="geometry">
            <mxRectangle width="230" height="80" as="alternateBounds" />
          </mxGeometry>
        </mxCell>
        <mxCell id="nDMAIQLn7FQ3r7cXZeYU-102" value="&lt;b&gt;1&lt;/b&gt;" style="text;html=1;align=center;verticalAlign=middle;resizable=0;points=[];autosize=1;strokeColor=none;fillColor=none;labelBackgroundColor=none;rounded=1;" parent="1" vertex="1">
          <mxGeometry x="333" y="199" width="30" height="30" as="geometry" />
        </mxCell>
        <mxCell id="nDMAIQLn7FQ3r7cXZeYU-128" value="&lt;b&gt;M&lt;/b&gt;" style="text;html=1;align=center;verticalAlign=middle;resizable=0;points=[];autosize=1;strokeColor=none;fillColor=none;labelBackgroundColor=none;rounded=1;" parent="1" vertex="1">
          <mxGeometry x="737" y="194" width="30" height="30" as="geometry" />
        </mxCell>
        <mxCell id="nDMAIQLn7FQ3r7cXZeYU-130" value="&lt;font style=&quot;font-size: 23px;&quot;&gt;&lt;b style=&quot;font-size: 23px;&quot;&gt;Hotel Management System&lt;/b&gt;&lt;/font&gt;" style="text;html=1;align=center;verticalAlign=middle;resizable=0;points=[];autosize=1;strokeColor=none;fillColor=#050505;glass=0;shadow=1;rounded=1;fontColor=#FFFFFF;arcSize=50;fontSize=23;" parent="1" vertex="1">
          <mxGeometry x="390" y="32" width="320" height="40" as="geometry" />
        </mxCell>
        <mxCell id="nDMAIQLn7FQ3r7cXZeYU-131" style="edgeStyle=orthogonalEdgeStyle;rounded=1;orthogonalLoop=1;jettySize=auto;html=1;exitX=0;exitY=0.5;exitDx=0;exitDy=0;entryX=0;entryY=0.5;entryDx=0;entryDy=0;strokeWidth=2;endArrow=none;endFill=0;" parent="1" source="nDMAIQLn7FQ3r7cXZeYU-55" target="C-vyLk0tnHw3VtMMgP7b-24" edge="1">
          <mxGeometry relative="1" as="geometry" />
        </mxCell>
        <mxCell id="nDMAIQLn7FQ3r7cXZeYU-139" style="edgeStyle=orthogonalEdgeStyle;rounded=1;orthogonalLoop=1;jettySize=auto;html=1;exitX=0.5;exitY=0;exitDx=0;exitDy=0;entryX=0.501;entryY=1.002;entryDx=0;entryDy=0;entryPerimeter=0;endArrow=none;endFill=0;strokeWidth=2;" parent="1" source="nDMAIQLn7FQ3r7cXZeYU-78" target="nDMAIQLn7FQ3r7cXZeYU-65" edge="1">
          <mxGeometry relative="1" as="geometry">
            <Array as="points">
              <mxPoint x="408" y="649" />
              <mxPoint x="668" y="649" />
            </Array>
          </mxGeometry>
        </mxCell>
        <mxCell id="nDMAIQLn7FQ3r7cXZeYU-140" value="&lt;b&gt;D&lt;/b&gt;" style="ellipse;whiteSpace=wrap;html=1;aspect=fixed;rounded=1;" parent="1" vertex="1">
          <mxGeometry x="653" y="599" width="30" height="30" as="geometry" />
        </mxCell>
        <mxCell id="nDMAIQLn7FQ3r7cXZeYU-143" value="&lt;b&gt;Booking&lt;/b&gt;" style="rhombus;whiteSpace=wrap;html=1;labelBackgroundColor=none;rounded=1;" parent="1" vertex="1">
          <mxGeometry x="160" y="634" width="65" height="60" as="geometry" />
        </mxCell>
        <mxCell id="nDMAIQLn7FQ3r7cXZeYU-146" value="&lt;b&gt;1&lt;/b&gt;" style="text;html=1;align=center;verticalAlign=middle;resizable=0;points=[];autosize=1;strokeColor=none;fillColor=none;labelBackgroundColor=none;rounded=1;" parent="1" vertex="1">
          <mxGeometry x="253" y="732" width="30" height="30" as="geometry" />
        </mxCell>
        <mxCell id="nDMAIQLn7FQ3r7cXZeYU-147" value="&lt;b&gt;1&lt;/b&gt;" style="text;html=1;align=center;verticalAlign=middle;resizable=0;points=[];autosize=1;strokeColor=none;fillColor=none;labelBackgroundColor=none;rounded=1;" parent="1" vertex="1">
          <mxGeometry x="160" y="579" width="30" height="30" as="geometry" />
        </mxCell>
        <mxCell id="nDMAIQLn7FQ3r7cXZeYU-161" value="&lt;b&gt;Working&lt;br&gt;AT&lt;/b&gt;" style="rhombus;whiteSpace=wrap;html=1;labelBackgroundColor=none;rounded=1;" parent="1" vertex="1">
          <mxGeometry x="945" y="419" width="89" height="80" as="geometry" />
        </mxCell>
        <mxCell id="nDMAIQLn7FQ3r7cXZeYU-162" value="&lt;b&gt;1&lt;/b&gt;" style="text;html=1;align=center;verticalAlign=middle;resizable=0;points=[];autosize=1;strokeColor=none;fillColor=none;labelBackgroundColor=none;rounded=1;" parent="1" vertex="1">
          <mxGeometry x="962" y="399" width="30" height="30" as="geometry" />
        </mxCell>
        <mxCell id="nDMAIQLn7FQ3r7cXZeYU-163" value="&lt;b&gt;M&lt;/b&gt;" style="text;html=1;align=center;verticalAlign=middle;resizable=0;points=[];autosize=1;strokeColor=none;fillColor=none;labelBackgroundColor=none;rounded=1;arcSize=0;" parent="1" vertex="1">
          <mxGeometry x="994" y="489" width="30" height="30" as="geometry" />
        </mxCell>
        <mxCell id="nDMAIQLn7FQ3r7cXZeYU-164" value="&lt;b&gt;N&lt;/b&gt;" style="text;html=1;align=center;verticalAlign=middle;resizable=0;points=[];autosize=1;strokeColor=none;fillColor=none;labelBackgroundColor=none;rounded=1;arcSize=0;" parent="1" vertex="1">
          <mxGeometry x="953" y="489" width="30" height="30" as="geometry" />
        </mxCell>
        <mxCell id="IQkV1qVy1PYwTafJQDjK-4" value="&lt;h1&gt;&lt;br&gt;&lt;/h1&gt;" style="whiteSpace=wrap;html=1;fillColor=none;rounded=1;glass=0;shadow=1;strokeColor=default;strokeWidth=2;noLabel=0;backgroundOutline=0;metaEdit=0;enumerate=0;imageAlign=center;imageWidth=24;imageHeight=24;absoluteArcSize=1;" vertex="1" parent="1">
          <mxGeometry x="15" y="10" width="1070" height="820" as="geometry" />
        </mxCell>
      </root>
    </mxGraphModel>
  </diagram>
</mxfile>
